<?xml version="1.0" encoding="utf-8"?>
<!-- Generator: Adobe Illustrator 19.0.0, SVG Export Plug-In . SVG Version: 6.00 Build 0)  -->
<svg version="1.1" id="Layer_1" xmlns="http://www.w3.org/2000/svg" xmlns:xlink="http://www.w3.org/1999/xlink" x="0px" y="0px"
	 viewBox="0 0 315.7 366.4" style="enable-background:new 0 0 315.7 366.4;" xml:space="preserve">
<style type="text/css">
	.st0{fill:#057FC9;}
	.st1{fill:#F1AD2E;}
	.st2{fill:#00974B;}
	.st3{fill:#EE3754;}
	.st4{fill:#030303;}
</style>
<g>
	<path class="st0" d="M72.9,366.4c2.1-10.6,5.2-20.9,8.4-31.2c3.7-12.1,6.4-24.6,7.2-37.1c0.6-8.5-0.6-17.2-5.8-24.8
		c-13.8-20.4-24.2-42.8-38-63.2C30.2,188.6,17.8,166,4,144.3c-5.3-8.3-5.2-15.7-0.1-23.6c3.6-5.6,6.9-11.4,11-16.6
		c14.4-18.7,28.1-38,40.8-57.9c8.7-13.5,9.9-13.8,25.3-9.6c12.4,3.4,23.7,9.6,35.3,14.8c17.9,7.9,35.8,15.9,53.8,23.7
		c5.4,2.3,7.4,6.2,7.1,11.8c-0.5,9.8-4.9,17.2-13.9,21.3c-11.7,5.3-23.9,8.1-36.9,5.5c-8.2-1.7-14.3-6.9-20.7-11.6
		c-5.2-3.8-10.2-8-14.7-12.8c-1.4-1.4-3.1-3.2-5.1-1.6c-2.3,1.9-0.2,3.6,1.1,5c4.9,5,9.8,10,14.8,14.8c2.8,2.6,3.5,5.1,1.9,8.8
		c-4.9,11.8-4.7,11.9-17.3,9.4c-8.1-1.6-16.2-3.5-24.4-5.3c-2.4-0.5-5.6-1.6-6.4,1.4c-0.8,2.9,2.6,3.8,4.9,4.5
		c17.7,5.6,35.7,10.4,53.1,17c4.1,1.6,7.1,4,9.2,7.8c17.5,31.9,38.7,61.7,57,93.2c1,1.7,2,3.5,2.8,5.3c3.8,7.6,2.8,11.8-4.1,17.2
		c-6.6,5.1-14.4,6.7-22.4,7.8c-8.1,1.1-16.1,2.6-24.3,1.7c-1.2-0.1-2.9-0.3-3.2,1.6c-0.3,1.6,1,2.3,2.3,2.9c6.8,3.1,14.1,2,21.2,1.7
		c4.6-0.2,9.2-1.1,13.8-2c9.5-1.8,15,2.2,15.7,12c0.6,8.6,0.5,17.3,1,26c0.6,11.1,1.4,22.3,2.3,33.4c0.1,1.8-0.9,5.1,2.4,5
		c2.6-0.1,3.6-2.8,3.6-5.3c0.2-12.1,0.2-24.3,0.5-36.4c0.1-6.3,0.1-12.6,1-18.9c1.3-8.9,5.8-14.1,14.8-15.6c2.5-0.4,6.7,0.5,7.1-3
		c0.4-3.3-3.8-2.9-5.9-4.1c-5.5-3-9.4-7.6-12.2-12.8c-18.4-34.2-36.8-68.5-58.1-101c-1.1-1.7-2-3.5-2.8-5.3
		c-0.5-1.2-1.3-2.5-0.3-3.7c1.1-1.3,2.5-0.6,3.7-0.2c8.4,2.6,16.8,5.3,25.2,7.8c3.5,1.1,7,2.2,10.6,2.9
		c13.7,2.6,23.9,11.3,33.8,20.2c9.1,8.1,18,16.4,26.8,24.7c3.5,3.3,6.8,3.2,10.7,0.7c13.1-8.6,25.1-18.6,37-28.8
		c0.6-0.5,1.2-1.2,1.9-1.6c1.5-1,2.8-2.8,4.8-1.9c2.2,1,1.3,3.3,1.2,4.9c-1.6,18.9-5,37.6-8.4,56.3c-0.4,2.3-0.9,4.6-0.9,6.9
		c-0.6,14.1-11.1,21.7-19.7,30.6c-4,4.1-8,8.1-12.4,11.6c-4.9,3.8-6.3,8.7-6.2,14.4c0.4,20.3,1.5,40.6,4.1,60.8
		c0.3,2.3,0.4,4.6,0.6,7C189.5,366.4,131.2,366.4,72.9,366.4z"/>
	<path class="st1" d="M276.8,85.8c-0.1,4-2,6.7-3.8,9.5c-6.9,11.1-15.7,20.5-25,29.7c-11.6,11.5-22.9,23.2-33.3,35.9
		c-4.6,5.6-6.8,6.2-13.3,3.1c-8.3-3.9-16.4-8-24.6-12.1c-4.1-2.1-4.9-5-2.2-8.5c16.5-21.7,30.3-45.3,46.1-67.6
		c4.5-6.4,9.5-12.4,15.2-17.8c5-4.7,7-4.8,12.5-0.8c7.8,5.7,15.1,12,22.3,18.5C273.8,78.5,276.2,81.9,276.8,85.8z"/>
	<path class="st2" d="M288.6,102.9c2.3,0.1,4,1.4,5.7,2.8c8,6.6,13.8,15.2,20.3,23.2c1.4,1.7,1.4,3.8,0,5.5
		c-1.4,1.8-2.8,3.7-4.6,5.3c-19.5,17.6-37.5,36.8-58.5,52.8c-2.1,1.6-4,3.6-5.8,5.5c-2.7,2.8-5.3,2.5-7.8,0
		c-7-7.3-13.9-14.8-20.9-22.1c-1.9-2-0.8-3.7,0.5-5.3c2.7-3.3,5.4-6.8,8.4-9.9c14.9-15.9,30.2-31.4,46.4-46c3-2.7,5.7-5.6,8.6-8.3
		C283.2,104.4,285.7,103.2,288.6,102.9z"/>
	<path class="st3" d="M184.2,16.2c1.6-0.1,3.1,0.8,4.6,1.5c12,6.5,23.5,13.7,34.9,21.1c5,3.3,5.4,5.9,1.9,10.8
		c-12.8,17.8-25.7,35.5-38.5,53.3c-0.7,0.9-1.4,1.9-2.2,2.7c-2,1.8-3.8,0-5.4-0.8c-1.7-1-0.4-2.2,0.2-3.3c1.8-3.5,4-6.9,4.2-11
		c0.9-12.8-1.1-16.2-12.9-21.5c-5-2.3-9.8-4.9-14.8-7.1c-2.7-1.2-3.5-2.5-2-5.3c6.9-12.7,14.4-25,23.3-36.4
		C179.1,18.1,181,15.9,184.2,16.2z"/>
	<path class="st4" d="M122,0c8.9,1.5,18.6,5.1,28.2,8.8c13,5.1,13.8,7.1,7.7,19.9c-3.8,8.1-7.9,16.1-11.6,24.2
		c-1.1,2.3-2.1,2.9-4.5,2c-14.7-5.2-28.6-12.5-43-18.4c-2.2-0.9-2.7-2.1-1.8-4.2c4.3-9.9,8.8-19.7,15.7-28.2
		C114.8,1.4,117.2-0.2,122,0z"/>
	<path class="st3" d="M157.7,147.6c-6.9-1-14.7-3.8-22.6-6.4c-7.9-2.5-15.7-5.4-23.5-7.9c-3-1-3.9-2.2-2.5-5.4
		c4.8-11,4.6-11.1,15.8-6.5c9.9,4.1,19.6,1.7,29.2-1.3c5.7-1.8,11.1-4.4,16.5-6.9c2.7-1.3,4.9-0.8,6.9,0.8c2.3,1.9-0.1,3.7-0.8,5.2
		c-4.3,8.4-9.3,16.5-13,25.2C162.7,146.4,161.5,147.9,157.7,147.6z"/>
</g>
</svg>
